<?xml version="1.0" encoding="utf-8"?>
<!-- Generator: Adobe Illustrator 14.0.0, SVG Export Plug-In . SVG Version: 6.00 Build 43363)  -->
<!DOCTYPE svg PUBLIC "-//W3C//DTD SVG 1.1//EN" "http://www.w3.org/Graphics/SVG/1.1/DTD/svg11.dtd">
<svg version="1.1" id="Calque_1" xmlns="http://www.w3.org/2000/svg" xmlns:xlink="http://www.w3.org/1999/xlink" x="0px" y="0px"
	 width="90px" height="90px" viewBox="0 0 90 90" enable-background="new 0 0 90 90" xml:space="preserve">
<path fill="#FFFFFF" d="M5.509,5.023h79.807v77.629H5.509V5.023z M1.882,86.28h87.062V1.396H1.882V86.28z M58.907,31.649
	c0-0.29,0.109-0.436,0.437-0.436h5.694c0.291,0,0.436,0.109,0.436,0.436v28.621c0,0.291-0.073,0.436-0.436,0.436h-5.623
	c-0.361,0-0.472-0.181-0.472-0.471V31.649H58.907L58.907,31.649z M58.509,23.415c0-2.321,1.632-3.7,3.699-3.7
	c2.213,0,3.7,1.487,3.7,3.7c0,2.395-1.559,3.7-3.772,3.7C60.032,27.115,58.509,25.809,58.509,23.415z M42.185,43.584
	c-1.016-4.027-3.41-12.806-4.317-17.05h-0.073c-0.762,4.244-2.684,11.426-4.208,17.05H42.185z M32.1,49.461l-2.866,10.883
	c-0.073,0.289-0.182,0.362-0.544,0.362h-5.333c-0.363,0-0.435-0.109-0.363-0.544l10.302-36.058c0.182-0.653,0.291-1.233,0.363-3.011
	c0-0.254,0.109-0.363,0.291-0.363h7.618c0.253,0,0.361,0.073,0.435,0.363l11.537,39.141c0.071,0.291,0,0.472-0.29,0.472h-6.022
	c-0.29,0-0.473-0.073-0.544-0.326l-2.975-10.919H32.1L32.1,49.461z"/>
</svg>
