<?xml version="1.0" encoding="utf-8"?>
<!-- Generator: Adobe Illustrator 14.0.0, SVG Export Plug-In . SVG Version: 6.00 Build 43363)  -->
<!DOCTYPE svg PUBLIC "-//W3C//DTD SVG 1.1//EN" "http://www.w3.org/Graphics/SVG/1.1/DTD/svg11.dtd">
<svg version="1.1" id="Calque_1" xmlns="http://www.w3.org/2000/svg" xmlns:xlink="http://www.w3.org/1999/xlink" x="0px" y="0px"
	 width="90px" height="90px" viewBox="0 0 90 90" enable-background="new 0 0 90 90" xml:space="preserve">
<g>
	<g>
		<g>
			<path fill="#E9492A" d="M52.174,39.995c0.991-0.733,1.479-1.92,1.479-3.576c0-0.915-0.161-1.662-0.487-2.25
				c-0.331-0.586-0.773-1.045-1.323-1.376c-0.551-0.327-1.181-0.556-1.896-0.686c-0.716-0.128-1.458-0.191-2.231-0.191h-8.079v9.181
				h8.74C49.921,41.097,51.182,40.728,52.174,39.995z"/>
		</g>
		<g>
			<path fill="#E9492A" d="M49.039,46.979h-9.398v10.768h9.232c0.844,0,1.652-0.082,2.42-0.245c0.767-0.163,1.448-0.434,2.037-0.821
				c0.583-0.388,1.05-0.907,1.396-1.572c0.349-0.657,0.525-1.504,0.525-2.529c0-2.009-0.57-3.453-1.705-4.314
				C52.415,47.408,50.905,46.979,49.039,46.979z"/>
		</g>
		<g>
			<g>
				<path fill="#E9492A" d="M69.227,12.421H21.123c-4.625,0-8.365,3.739-8.365,8.358v48.102c0,4.621,3.747,8.361,8.365,8.361h48.104
					c4.617,0,8.356-3.74,8.356-8.361V20.779C77.584,16.165,73.844,12.421,69.227,12.421z M62.731,58.221
					c-0.772,1.443-1.808,2.628-3.109,3.541c-1.306,0.923-2.784,1.597-4.452,2.034c-1.668,0.438-3.376,0.663-5.136,0.663H31.013
					V25.203h18.469c1.869,0,3.577,0.166,5.112,0.497c1.541,0.33,2.855,0.87,3.958,1.622c1.097,0.756,1.953,1.75,2.556,2.997
					c0.605,1.245,0.913,2.783,0.913,4.616c0,1.979-0.449,3.628-1.352,4.948c-0.896,1.316-2.224,2.397-3.984,3.244
					c2.421,0.701,4.225,1.913,5.412,3.654c1.192,1.739,1.791,3.84,1.791,6.292C63.883,55.059,63.5,56.768,62.731,58.221z"/>
			</g>
		</g>
	</g>
</g>
</svg>
