<?xml version="1.0" encoding="utf-8"?>
<!-- Generator: Adobe Illustrator 14.0.0, SVG Export Plug-In . SVG Version: 6.00 Build 43363)  -->
<!DOCTYPE svg PUBLIC "-//W3C//DTD SVG 1.1//EN" "http://www.w3.org/Graphics/SVG/1.1/DTD/svg11.dtd">
<svg version="1.1" id="Calque_1" xmlns="http://www.w3.org/2000/svg" xmlns:xlink="http://www.w3.org/1999/xlink" x="0px" y="0px"
	 width="90px" height="90px" viewBox="0 0 90 90" enable-background="new 0 0 90 90" xml:space="preserve">
<g>
	<g>
		<g>
			<g>
				<path fill="#E9492A" d="M32.621,16.06v-3.168h4.619V9.427h-8.087v9.796h8.087V16.06H32.621z M45.553,12.891h3.231V9.427h-8.087
					v3.464c1.085,1.083,1.648,1.602,3.211,3.164c-0.917,0-3.211,0.004-3.211,0.004v3.163h8.087V16.06L45.553,12.891L45.553,12.891z
					 M57.021,12.891h3.233V9.427h-8.091v3.464c1.079,1.083,1.644,1.602,3.21,3.164c-0.911,0-3.21,0.004-3.21,0.004v3.163h8.091
					V16.06L57.021,12.891L57.021,12.891z"/>
			</g>
		</g>
		<g>
			<g>
				<path fill="#E9492A" d="M18.504,23.877l4.91,53.219l21.292,5.736l21.285-5.736l4.913-53.219H18.504z M61.002,34.701
					l-0.646,6.424l-15.672,6.701l-0.04,0.015h15.154l-1.732,19.931l-13.36,3.898l-0.022-0.004v0.004l-13.43-3.972l-0.869-10.033
					h6.666l0.434,5.197l7.138,1.8l0.061-0.016v0.007l7.388-2.08l0.507-8.377l-7.895-0.024l0,0l-14.731-0.05l-0.51-6.281
					l15.241-6.344l0.89-0.372H28.868l-0.79-6.424H61.002L61.002,34.701L61.002,34.701z"/>
			</g>
		</g>
	</g>
</g>
</svg>
