<?xml version="1.0" encoding="utf-8"?>
<!-- Generator: Adobe Illustrator 14.0.0, SVG Export Plug-In . SVG Version: 6.00 Build 43363)  -->
<!DOCTYPE svg PUBLIC "-//W3C//DTD SVG 1.1//EN" "http://www.w3.org/Graphics/SVG/1.1/DTD/svg11.dtd">
<svg version="1.1" id="Calque_1" xmlns="http://www.w3.org/2000/svg" xmlns:xlink="http://www.w3.org/1999/xlink" x="0px" y="0px"
	 width="90px" height="90px" viewBox="0 0 90 90" enable-background="new 0 0 90 90" xml:space="preserve">
<g>
	<g>
		<g>
			<g>
				<path fill="#E9492A" d="M23.854,9.444h3.308v3.269h3.021V9.444h3.311v9.896h-3.306v-3.313h-3.026v3.315h-3.308V9.444
					L23.854,9.444z M37.843,12.728h-2.912V9.444h9.135v3.283h-2.915v6.615H37.84v-6.615H37.843z M45.514,9.444h3.451l2.12,3.478
					l2.12-3.478h3.45v9.896h-3.294v-4.905l-2.273,3.52h-0.061l-2.276-3.518v4.906h-3.234L45.514,9.444L45.514,9.444z M58.304,9.444
					h3.308v6.625h4.653v3.271h-7.961V9.444z"/>
			</g>
		</g>
		<g>
			<g>
				<path fill="#E9492A" d="M19.014,23.869L23.75,76.94l21.231,5.893l21.292-5.902l4.736-53.064H19.014V23.869z M61.14,36.459
					l-0.299,3.302l-0.131,1.462H35.806l0.595,6.667h23.724l-0.166,1.75l-1.527,17.133l-0.095,1.102L44.99,71.571h-0.005
					l-13.332-3.696L30.74,57.653h6.534l0.462,5.191l7.249,1.958l0.017-0.004l7.25-1.954l0.753-8.447H30.449l-1.601-17.938
					l-0.154-1.747h32.604L61.14,36.459z"/>
			</g>
		</g>
	</g>
</g>
</svg>
