<?xml version="1.0" encoding="utf-8"?>
<!-- Generator: Adobe Illustrator 14.0.0, SVG Export Plug-In . SVG Version: 6.00 Build 43363)  -->
<!DOCTYPE svg PUBLIC "-//W3C//DTD SVG 1.1//EN" "http://www.w3.org/Graphics/SVG/1.1/DTD/svg11.dtd">
<svg version="1.1" id="Calque_1" xmlns="http://www.w3.org/2000/svg" xmlns:xlink="http://www.w3.org/1999/xlink" x="0px" y="0px"
	 width="90px" height="90px" viewBox="0 0 90 90" enable-background="new 0 0 90 90" xml:space="preserve">
<path fill="#E9492A" d="M13,12.833v62.834h62.833V12.833H13z M47.193,61.839c0,6.117-3.586,8.902-8.814,8.902
	c-4.723,0-7.467-2.449-8.858-5.4l4.809-2.908c0.928,1.643,1.772,3.033,3.794,3.033c1.942,0,3.164-0.756,3.164-3.711V41.681h5.905
	V61.839z M61.157,70.741c-5.484,0-9.028-2.615-10.756-6.031v-0.002l4.809-2.783c1.266,2.066,2.907,3.584,5.819,3.584
	c2.447,0,4.006-1.221,4.006-2.908c0-2.025-1.601-2.742-4.301-3.924l-1.475-0.633c-4.262-1.814-7.089-4.092-7.089-8.897
	c0-4.429,3.377-7.802,8.647-7.802c3.753,0,6.452,1.306,8.395,4.722l-4.601,2.952c-1.011-1.813-2.105-2.53-3.794-2.53
	c-1.731,0-2.825,1.097-2.825,2.53c0,1.771,1.094,2.49,3.627,3.586l1.476,0.633c5.02,2.15,7.845,4.344,7.845,9.279
	C70.94,67.831,66.766,70.741,61.157,70.741z"/>
</svg>
