<?xml version="1.0" encoding="utf-8"?>
<!-- Generator: Adobe Illustrator 14.0.0, SVG Export Plug-In . SVG Version: 6.00 Build 43363)  -->
<!DOCTYPE svg PUBLIC "-//W3C//DTD SVG 1.1//EN" "http://www.w3.org/Graphics/SVG/1.1/DTD/svg11.dtd">
<svg version="1.1" id="Calque_1" xmlns="http://www.w3.org/2000/svg" xmlns:xlink="http://www.w3.org/1999/xlink" x="0px" y="0px"
	 width="90px" height="90px" viewBox="0 0 90 90" enable-background="new 0 0 90 90" xml:space="preserve">
<g>
	<g id="g5">
		<path id="path14" fill="#E9492A" d="M61.006,8.444l-0.058-0.112c-0.026-0.028-0.055-0.057-0.11-0.057l-0.113,0.028
			c-0.055,0.056-0.083,0.084-0.083,0.14L58.257,51.6l0.364-0.055l2.301-41.981l2.748,4.514h-0.028
			c2.076,6.113,2.945,12.62,2.607,19.519l0.168,0.253l2.721,4.823l0.169,0.168c4.179,3.673,8.861,6.142,14.05,7.403l1.262,2.047
			l0.168,0.057l0.028-0.057L60.948,9.255l0.058-0.813"/>
		<path id="path18" fill="#E9492A" d="M60.165,23.672c2.944,6.029,4.009,15.143,3.225,27.342l11.47-1.402L60.165,23.672z"/>
		<path id="path20" fill="#E9492A" d="M86.301,50.173c1.178-0.14,1.935-0.393,2.271-0.757L28.56,56.734h-0.029
			c0.029,2.496,1.15,4.46,3.338,5.861c0.588,0.422,1.205,0.729,1.766,0.926c0.534-0.617,1.122-1.064,1.824-1.485h0.027
			c6.282-3.815,15.62-4.404,27.959-1.796l0.142,0.028c1.346,0.281,2.691,0.617,3.953,1.009c0.364,0.057,0.674-0.055,0.926-0.279
			c0.448-0.337,1.01-0.59,1.767-0.758v-0.027c1.991-3.534,4.683-6.143,8.049-7.853C80.607,51.211,83.299,50.453,86.301,50.173"/>
		<path id="path22" fill="#E9492A" d="M57.473,51.267L60.22,9.146c-3.982,15.367-10.376,29.726-19.153,43.046L57.473,51.267"/>
		<path id="path24" fill="#E9492A" d="M42.021,17.334l-0.112-0.057l-0.112,0.028l-0.057,0.141l-2.271,36.455l0.336-0.025
			l2.271-36.43L42.021,17.334"/>
		<path id="path26" fill="#E9492A" d="M38.823,53.118L38.823,53.118l2.412-35.56L28.531,54.212L38.823,53.118"/>
	</g>
	<g id="g13">
		<path fill="#E9492A" d="M25.671,66.65c-0.062,0-0.122-0.035-0.15-0.095c-0.039-0.083-0.003-0.182,0.08-0.221
			c1.524-0.719,2.872-1.142,4.008-1.255c1.155-0.116,2.125,0.083,2.883,0.595c1.421,0.898,3.697,0.612,6.765-0.854
			c0.083-0.04,0.181-0.005,0.221,0.077c0.039,0.083,0.004,0.182-0.079,0.22c-1.584,0.759-2.982,1.214-4.157,1.353
			c-1.181,0.139-2.166-0.035-2.93-0.52c0,0-0.002-0.002-0.003-0.002c-0.693-0.468-1.591-0.649-2.668-0.541
			c-1.098,0.11-2.41,0.521-3.899,1.227C25.719,66.645,25.694,66.65,25.671,66.65L25.671,66.65z"/>
		<path fill="#E9492A" d="M34.294,67.979c-0.474,0-0.961-0.022-1.459-0.068c-0.091-0.01-0.158-0.088-0.149-0.181
			c0.008-0.089,0.089-0.156,0.179-0.149c2.763,0.252,5.033-0.19,6.938-1.35c1.971-1.171,3.673-1.707,5.063-1.594
			c0.659,0.055,1.313,0.19,1.946,0.4c0.087,0.027,0.133,0.123,0.104,0.209c-0.027,0.087-0.121,0.133-0.208,0.104
			c-0.606-0.203-1.236-0.331-1.869-0.385c-1.319-0.107-2.956,0.413-4.866,1.549c-0.977,0.593-2.073,1.013-3.256,1.242
			C35.96,67.906,35.149,67.979,34.294,67.979L34.294,67.979z"/>
		<path fill="#E9492A" d="M35.206,64.463c-0.053,0-0.105-0.024-0.137-0.072c-0.052-0.073-0.032-0.179,0.042-0.229
			c1.479-1.022,3.215-1.838,5.162-2.431c1.941-0.591,4.146-0.972,6.552-1.135c2.401-0.162,5.072-0.113,7.939,0.149
			c2.862,0.261,6.001,0.742,9.331,1.427c0.089,0.019,0.147,0.106,0.129,0.194c-0.019,0.091-0.106,0.148-0.195,0.13
			c-13.251-2.728-22.918-2.077-28.729,1.938C35.271,64.453,35.238,64.463,35.206,64.463L35.206,64.463z"/>
		<path fill="#E9492A" d="M59.904,66.425c-0.438,0-0.891-0.02-1.353-0.057c-0.091-0.006-0.158-0.086-0.151-0.178
			c0.008-0.09,0.087-0.158,0.179-0.151c2.765,0.224,5.035-0.219,6.941-1.351c1.967-1.17,3.67-1.706,5.058-1.593
			c0.67,0.027,1.328,0.164,1.956,0.403c0.085,0.031,0.129,0.126,0.096,0.214c-0.032,0.084-0.129,0.126-0.214,0.094
			c-0.595-0.227-1.221-0.355-1.854-0.383c-0.003,0-0.005,0-0.008,0c-1.317-0.106-2.955,0.413-4.865,1.549
			c-0.977,0.579-2.073,0.992-3.256,1.222C61.646,66.348,60.798,66.425,59.904,66.425L59.904,66.425z"/>
		<path fill="#E9492A" d="M50.265,18.771c-0.104,0-0.207-0.041-0.285-0.12c-1.149-1.172-2.309-1.381-3.548-0.638
			c-0.188,0.113-0.435,0.052-0.548-0.137c-0.112-0.189-0.052-0.435,0.137-0.548c0.785-0.47,1.57-0.642,2.334-0.51
			c0.66,0.114,1.308,0.455,1.928,1.016c0.703-0.562,1.41-0.904,2.106-1.017c0.808-0.131,1.607,0.042,2.375,0.513
			c0.189,0.116,0.248,0.361,0.132,0.549c-0.115,0.188-0.36,0.248-0.548,0.132c-1.224-0.749-2.474-0.533-3.818,0.66
			C50.453,18.737,50.359,18.771,50.265,18.771L50.265,18.771z"/>
		<path fill="#E9492A" d="M47.264,14.368c0,0-0.001,0-0.002,0c-0.111,0-0.218-0.048-0.293-0.131
			c-1.243-1.368-2.445-1.675-3.678-0.935c-0.188,0.114-0.434,0.052-0.547-0.137c-0.114-0.189-0.052-0.436,0.137-0.548
			c0.791-0.476,1.599-0.618,2.399-0.425c0.674,0.163,1.34,0.567,1.988,1.203c1.44-1.396,2.914-1.658,4.382-0.777
			c0.189,0.112,0.249,0.358,0.138,0.548c-0.114,0.189-0.36,0.25-0.549,0.137c-1.233-0.74-2.401-0.441-3.68,0.939
			C47.481,14.321,47.375,14.368,47.264,14.368L47.264,14.368z"/>
	</g>
	<g id="g33">
		<path id="path66" fill="#E9492A" d="M4.561,52.9h3.718c1.117,0,1.937,0.317,2.459,0.954c0.523,0.634,0.693,1.521,0.51,2.658
			c-0.075,0.466-0.21,0.894-0.403,1.283c-0.194,0.39-0.45,0.745-0.768,1.068c-0.378,0.389-0.801,0.664-1.269,0.832
			c-0.469,0.167-1.068,0.252-1.798,0.252H5.355l-0.412,2.549H3.011L4.561,52.9L4.561,52.9z M6.249,54.418l-0.65,4.024h1.176
			c0.779,0,1.357-0.158,1.733-0.477c0.376-0.317,0.624-0.849,0.744-1.591c0.115-0.716,0.048-1.22-0.201-1.517
			c-0.25-0.294-0.742-0.44-1.477-0.44H6.249"/>
		<path id="path68" fill="#E9492A" d="M13.419,50.352h1.918L14.925,52.9h1.707c1.074,0,1.819,0.203,2.234,0.61
			c0.415,0.406,0.549,1.062,0.403,1.967l-0.722,4.471H16.6l0.688-4.254c0.078-0.485,0.041-0.812-0.114-0.987
			c-0.154-0.174-0.476-0.261-0.966-0.261h-1.531l-0.889,5.502h-1.92L13.419,50.352"/>
		<path id="path70" fill="#E9492A" d="M21.359,52.9h3.717c1.118,0,1.937,0.317,2.461,0.954c0.523,0.634,0.692,1.521,0.509,2.658
			c-0.075,0.466-0.209,0.894-0.404,1.283c-0.193,0.39-0.449,0.745-0.767,1.068c-0.378,0.389-0.801,0.664-1.271,0.832
			c-0.467,0.167-1.067,0.252-1.797,0.252h-1.655l-0.412,2.549h-1.933L21.359,52.9L21.359,52.9z M23.047,54.418l-0.65,4.024h1.175
			c0.779,0,1.357-0.158,1.733-0.477c0.375-0.317,0.623-0.849,0.743-1.591c0.116-0.716,0.049-1.22-0.202-1.517
			c-0.249-0.294-0.741-0.44-1.476-0.44H23.047"/>
	</g>
	<g id="g65">
		<path id="path72" fill="#E9492A" d="M3.541,64.401h3.718l1.634,8.924l4.517-8.924h3.705L15.236,76.03h-2.483l1.668-9.057
			L9.866,76.03h-2.69l-1.711-9.152L4.24,76.03H1.662L3.541,64.401"/>
		<path id="path74" fill="#E9492A" d="M21.577,74.147h1.877l1.075-6.657h2.334l-1.344,8.312c-0.183,1.13-0.59,1.966-1.225,2.51
			c-0.633,0.543-1.513,0.816-2.638,0.816h-4.575l0.279-1.73h4.174c0.447,0,0.809-0.104,1.083-0.314
			c0.274-0.208,0.443-0.511,0.508-0.909l0.024-0.144h-2.066c-1.321,0-2.222-0.252-2.702-0.756c-0.481-0.503-0.626-1.344-0.436-2.52
			l0.851-5.265h2.307l-0.822,5.09c-0.104,0.645-0.073,1.067,0.094,1.268C20.542,74.048,20.943,74.147,21.577,74.147"/>
		<path id="path76" fill="#E9492A" d="M33.148,64.401h2.687L39.09,76.03h-2.817l-0.659-2.768h-5.233L28.86,76.03h-2.687
			L33.148,64.401L33.148,64.401z M34.02,66.71l-2.484,4.476h3.588L34.02,66.71"/>
		<path id="path78" fill="#E9492A" d="M47.888,76.03h-4.482c-1.354,0-2.35-0.386-2.984-1.156c-0.635-0.771-0.84-1.844-0.619-3.221
			c0.092-0.563,0.254-1.082,0.489-1.555c0.235-0.473,0.545-0.905,0.93-1.294c0.458-0.471,0.973-0.806,1.544-1.01
			c0.571-0.203,1.296-0.305,2.175-0.305h2.003l0.499-3.089h2.324L47.888,76.03L47.888,76.03z M45.86,74.199l0.786-4.869h-1.411
			c-0.946,0-1.648,0.192-2.107,0.575c-0.458,0.382-0.759,1.019-0.903,1.91c-0.141,0.865-0.058,1.479,0.249,1.841
			c0.305,0.362,0.901,0.543,1.787,0.543H45.86"/>
		<path id="path80" fill="#E9492A" d="M51.298,67.49h8.96c1.3,0,2.196,0.247,2.69,0.736c0.493,0.49,0.65,1.287,0.473,2.389
			l-0.875,5.415h-2.352l0.829-5.122c0.101-0.628,0.07-1.042-0.095-1.243c-0.164-0.2-0.552-0.301-1.161-0.301h-1.31L57.38,76.03
			h-2.386l1.077-6.666h-2.727l-1.076,6.666h-2.352L51.298,67.49"/>
		<path id="path82" fill="#E9492A" d="M68.617,66.521h-2.446l0.341-2.119h2.447L68.617,66.521z M67.08,76.03h-2.447l1.379-8.54
			h2.448L67.08,76.03"/>
		<path id="path84" fill="#E9492A" d="M70.479,67.49h4.391c1.327,0,2.235,0.24,2.725,0.724s0.646,1.284,0.464,2.401l-0.875,5.415
			h-2.334l0.831-5.138c0.104-0.639,0.068-1.053-0.106-1.243c-0.175-0.191-0.57-0.285-1.188-0.285H72.51l-1.078,6.666h-2.334
			L70.479,67.49"/>
	</g>
</g>
</svg>
