<?xml version="1.0" encoding="utf-8"?>
<!-- Generator: Adobe Illustrator 14.0.0, SVG Export Plug-In . SVG Version: 6.00 Build 43363)  -->
<!DOCTYPE svg PUBLIC "-//W3C//DTD SVG 1.1//EN" "http://www.w3.org/Graphics/SVG/1.1/DTD/svg11.dtd">
<svg version="1.1" id="Calque_1" xmlns="http://www.w3.org/2000/svg" xmlns:xlink="http://www.w3.org/1999/xlink" x="0px" y="0px"
	 width="90px" height="90px" viewBox="0 0 90 90" enable-background="new 0 0 90 90" xml:space="preserve">
<g>
	<g>
		<g>
			<g>
				<path fill="#E9492A" d="M22.519,69.594h-3.376c-0.123-5.701-0.449-11.061-0.984-16.082h-0.033l-5.145,16.082h-2.567
					L5.296,53.512H5.27C4.889,58.33,4.653,63.697,4.551,69.594H1.472c0.195-7.174,0.697-13.9,1.494-20.179h4.191l4.871,14.825h0.027
					l4.903-14.825h4.005C21.839,56.769,22.359,63.493,22.519,69.594 M37.169,54.706c-1.375,7.461-3.19,12.887-5.442,16.268
					c-1.757,2.605-3.679,3.909-5.771,3.909c-0.56,0-1.248-0.165-2.065-0.503v-1.795c0.403,0.058,0.869,0.094,1.409,0.094
					c0.971,0,1.764-0.271,2.361-0.809c0.718-0.656,1.076-1.398,1.076-2.216c0-0.559-0.281-1.702-0.839-3.437l-3.705-11.514h3.315
					l2.664,8.611c0.596,1.956,0.845,3.32,0.749,4.1c1.453-3.89,2.47-8.127,3.045-12.711h3.202V54.706z"/>
			</g>
		</g>
		<g>
			<g>
				<path fill="#E9492A" d="M82.128,69.594h-9.593V49.415h3.227v17.696h6.366V69.594L82.128,69.594z M70.021,70.079l-3.709-1.826
					c0.327-0.27,0.647-0.562,0.929-0.899c1.577-1.857,2.363-4.591,2.363-8.222c0-6.677-2.624-10.017-7.86-10.017
					c-2.573,0-4.574,0.848-6.011,2.544c-1.578,1.856-2.363,4.584-2.363,8.191c0,3.549,0.7,6.153,2.092,7.803
					c1.276,1.498,3.201,2.243,5.771,2.243c0.962,0,1.838-0.122,2.644-0.354l4.829,2.811L70.021,70.079z M58.005,65.554
					c-0.816-1.314-1.226-3.42-1.226-6.336c0-5.074,1.547-7.624,4.628-7.624c1.619,0,2.799,0.611,3.561,1.827
					c0.817,1.312,1.227,3.408,1.227,6.272c0,5.126-1.546,7.687-4.633,7.687C59.947,67.38,58.761,66.775,58.005,65.554
					 M51.963,64.003c0,1.711-0.627,3.113-1.883,4.219c-1.251,1.089-2.94,1.642-5.049,1.642c-1.969,0-3.887-0.631-5.735-1.886
					l0.861-1.731c1.595,0.796,3.04,1.197,4.335,1.197c1.218,0,2.164-0.273,2.854-0.805c0.693-0.542,1.099-1.293,1.099-2.239
					c0-1.202-0.835-2.223-2.368-3.083c-1.411-0.781-4.243-2.402-4.243-2.402c-1.533-1.118-2.301-2.315-2.301-4.293
					c0-1.641,0.574-2.954,1.715-3.964c1.148-1.004,2.627-1.509,4.446-1.509c1.873,0,3.573,0.505,5.106,1.498l-0.775,1.732
					c-1.311-0.559-2.61-0.842-3.886-0.842c-1.036,0-1.832,0.251-2.386,0.751c-0.562,0.498-0.907,1.136-0.907,1.916
					c0,1.192,0.855,2.229,2.427,3.107c1.439,0.776,4.336,2.429,4.336,2.429C51.175,60.853,51.963,62.041,51.963,64.003"/>
			</g>
		</g>
		<g>
			<g>
				<path fill="#E9492A" d="M86.18,42.653c-1.952-0.043-3.461,0.151-4.729,0.684c-0.364,0.149-0.948,0.149-1.002,0.614
					c0.2,0.194,0.223,0.51,0.396,0.776c0.296,0.492,0.803,1.145,1.266,1.49c0.514,0.391,1.028,0.776,1.564,1.12
					c0.948,0.588,2.021,0.925,2.949,1.511c0.536,0.341,1.071,0.776,1.61,1.146c0.265,0.194,0.437,0.515,0.78,0.638v-0.075
					c-0.176-0.219-0.221-0.535-0.389-0.78l-0.738-0.707c-0.706-0.952-1.584-1.779-2.532-2.459c-0.782-0.54-2.49-1.267-2.807-2.169
					l-0.044-0.047c0.531-0.056,1.17-0.245,1.679-0.397c0.835-0.216,1.587-0.168,2.44-0.386c0.39-0.1,0.777-0.226,1.171-0.342v-0.224
					c-0.438-0.433-0.757-1.024-1.221-1.437c-1.238-1.075-2.611-2.12-4.025-2.997c-0.755-0.49-1.729-0.805-2.534-1.219
					c-0.292-0.15-0.78-0.225-0.956-0.463c-0.434-0.538-0.679-1.244-0.995-1.883c-0.703-1.337-1.39-2.828-1.999-4.241
					c-0.442-0.95-0.709-1.899-1.244-2.781c-2.517-4.143-5.24-6.652-9.438-9.119c-0.901-0.513-1.97-0.729-3.118-0.998l-1.832-0.098
					c-0.392-0.168-0.779-0.637-1.122-0.856c-1.392-0.875-4.974-2.781-5.998-0.268c-0.658,1.587,0.976,3.149,1.541,3.953
					c0.41,0.558,0.951,1.195,1.236,1.829c0.17,0.413,0.222,0.856,0.393,1.291c0.392,1.075,0.756,2.269,1.266,3.27
					c0.271,0.514,0.564,1.045,0.901,1.512c0.196,0.272,0.537,0.387,0.613,0.826c-0.338,0.493-0.367,1.222-0.563,1.832
					c-0.876,2.754-0.531,6.17,0.707,8.192c0.392,0.613,1.315,1.955,2.565,1.439c1.092-0.439,0.853-1.829,1.167-3.049
					c0.073-0.294,0.027-0.485,0.171-0.682v0.05c0.339,0.684,0.684,1.342,0.995,2.027c0.762,1.19,2.074,2.435,3.175,3.263
					c0.586,0.442,1.045,1.193,1.776,1.464v-0.075h-0.047c-0.153-0.217-0.364-0.317-0.562-0.485
					c-0.438-0.435-0.925-0.979-1.269-1.466c-1.021-1.362-1.926-2.875-2.729-4.435c-0.395-0.76-0.73-1.586-1.048-2.344
					c-0.145-0.291-0.145-0.73-0.391-0.877c-0.367,0.537-0.903,1.001-1.172,1.66c-0.464,1.049-0.511,2.343-0.683,3.68l-0.094,0.05
					c-0.776-0.195-1.047-0.998-1.344-1.676c-0.729-1.734-0.852-4.519-0.218-6.512c0.166-0.515,0.902-2.125,0.607-2.61
					c-0.143-0.469-0.635-0.73-0.902-1.101c-0.318-0.462-0.658-1.045-0.876-1.558c-0.589-1.365-0.879-2.878-1.51-4.245
					c-0.295-0.63-0.802-1.292-1.219-1.881c-0.469-0.653-0.973-1.122-1.344-1.899c-0.127-0.268-0.292-0.711-0.097-1
					c0.051-0.199,0.15-0.268,0.344-0.317c0.316-0.267,1.219,0.07,1.535,0.223c0.901,0.362,1.656,0.705,2.414,1.218
					c0.34,0.247,0.703,0.707,1.142,0.828h0.51c0.78,0.168,1.66,0.049,2.389,0.266c1.3,0.417,2.465,1.025,3.515,1.687
					c3.193,2.018,5.826,4.901,7.604,8.333c0.293,0.562,0.417,1.08,0.681,1.665c0.513,1.192,1.151,2.407,1.661,3.581
					c0.511,1.146,0.997,2.317,1.729,3.263c0.366,0.513,1.832,0.783,2.493,1.054c0.483,0.217,1.242,0.411,1.681,0.68
					c0.831,0.508,1.653,1.095,2.436,1.656C84.891,41.558,86.11,42.164,86.18,42.653 M61.31,21.468c-0.337-0.009-0.673,0.037-1,0.119
					v0.051h0.051c0.193,0.392,0.532,0.66,0.778,1.002c0.197,0.386,0.366,0.772,0.559,1.167l0.047-0.048
					c0.342-0.243,0.51-0.634,0.51-1.214c-0.144-0.174-0.168-0.347-0.293-0.51C61.823,21.782,61.51,21.659,61.31,21.468"/>
			</g>
		</g>
		<g>
			<g>
				<path fill="#E9492A" d="M88.504,69.591h0.504v-2.475h-0.759l-0.619,1.689l-0.673-1.689h-0.728v2.475h0.478v-1.879h0.03
					l0.699,1.879h0.36l0.707-1.879V69.591L88.504,69.591z M84.432,69.591h0.537v-2.054h0.698V67.12h-1.962v0.417h0.727V69.591
					L84.432,69.591z"/>
			</g>
		</g>
	</g>
</g>
</svg>
