<?xml version="1.0" encoding="utf-8"?>
<!-- Generator: Adobe Illustrator 14.0.0, SVG Export Plug-In . SVG Version: 6.00 Build 43363)  -->
<!DOCTYPE svg PUBLIC "-//W3C//DTD SVG 1.1//EN" "http://www.w3.org/Graphics/SVG/1.1/DTD/svg11.dtd">
<svg version="1.1" id="Calque_1" xmlns="http://www.w3.org/2000/svg" xmlns:xlink="http://www.w3.org/1999/xlink" x="0px" y="0px"
	 width="90px" height="90px" viewBox="0 0 90 90" enable-background="new 0 0 90 90" xml:space="preserve">
<path fill="#979CA0" d="M4.36,3.535h81.279v79.062H4.36V3.535z M0.666,86.291h88.667V-0.16H0.666V86.291z M60.441,35.307
	c-2.918,0-3.916,1.478-3.916,2.697c0,1.33,0.666,2.254,4.582,4.286c5.801,2.808,7.608,5.505,7.608,9.458
	c0,5.911-4.507,9.088-10.604,9.088c-3.215,0-5.983-0.665-7.572-1.589c-0.258-0.11-0.295-0.295-0.295-0.591v-5.432
	c0-0.369,0.186-0.479,0.441-0.295c2.328,1.514,4.987,2.18,7.428,2.18c2.919,0,4.138-1.219,4.138-2.883
	c0-1.33-0.853-2.513-4.582-4.434c-5.245-2.513-7.425-5.062-7.425-9.311c0-4.766,3.729-8.719,10.195-8.719
	c3.178,0,5.396,0.48,6.613,1.034c0.295,0.185,0.368,0.48,0.368,0.739V36.6c0,0.296-0.185,0.48-0.554,0.37
	C65.245,35.936,62.844,35.307,60.441,35.307L60.441,35.307z M28.67,39.704c0.85,0.073,1.515,0.073,2.992,0.073
	c4.323,0,8.387-1.515,8.387-7.389c0-4.692-2.918-7.057-7.832-7.057c-1.478,0-2.882,0.074-3.547,0.111V39.704z M22.094,20.086
	c0-0.258,0.518-0.443,0.813-0.443c2.364-0.111,5.873-0.185,9.531-0.185c10.233,0,14.224,5.616,14.224,12.783
	c0,9.384-6.798,13.411-15.147,13.411c-1.404,0-1.884-0.073-2.882-0.073v14.187c0,0.297-0.11,0.443-0.443,0.443h-5.652
	c-0.296,0-0.443-0.111-0.443-0.443v-39.68H22.094z"/>
</svg>
