<?xml version="1.0" encoding="utf-8"?>
<!-- Generator: Adobe Illustrator 14.0.0, SVG Export Plug-In . SVG Version: 6.00 Build 43363)  -->
<!DOCTYPE svg PUBLIC "-//W3C//DTD SVG 1.1//EN" "http://www.w3.org/Graphics/SVG/1.1/DTD/svg11.dtd">
<svg version="1.1" id="Calque_1" xmlns="http://www.w3.org/2000/svg" xmlns:xlink="http://www.w3.org/1999/xlink" x="0px" y="0px"
	 width="90px" height="90px" viewBox="0 0 90 90" enable-background="new 0 0 90 90" xml:space="preserve">
<path fill="#E9492A" d="M76.832,48.671c-3.075,0.025-5.754,0.759-8.002,1.863c-0.812-1.636-1.646-3.089-1.788-4.158
	c-0.154-1.238-0.35-1.996-0.154-3.476c0.185-1.48,1.057-3.591,1.047-3.755c-0.021-0.162-0.198-0.922-1.973-0.935
	c-1.769-0.017-3.302,0.336-3.48,0.801c-0.18,0.466-0.517,1.535-0.743,2.628c-0.31,1.613-3.548,7.367-5.397,10.386
	c-0.602-1.179-1.117-2.208-1.221-3.035c-0.165-1.237-0.364-1.996-0.165-3.481c0.188-1.481,1.062-3.597,1.044-3.759
	c-0.016-0.162-0.19-0.91-1.96-0.937c-1.781-0.005-3.308,0.341-3.485,0.81c-0.181,0.469-0.372,1.564-0.747,2.631
	c-0.369,1.062-4.671,10.673-5.799,13.158c-0.579,1.275-1.087,2.288-1.44,2.982c0,0-0.017,0.044-0.061,0.133
	c-0.303,0.592-0.482,0.913-0.482,0.913s0,0,0,0.017c-0.243,0.439-0.5,0.84-0.625,0.84c-0.104,0-0.28-1.163,0.035-2.747
	c0.636-3.331,2.172-8.522,2.155-8.702c0-0.09,0.292-0.995-1.001-1.464c-1.257-0.469-1.709,0.307-1.815,0.307
	c-0.119,0-0.194,0.274-0.194,0.274s1.408-5.843-2.677-5.843c-2.55,0-6.066,2.793-7.807,5.309c-1.092,0.595-3.434,1.867-5.932,3.238
	c-0.955,0.537-1.932,1.063-2.855,1.566c-0.06-0.061-0.129-0.148-0.194-0.208c-4.928-5.273-14.059-8.996-13.67-16.076
	c0.146-2.585,1.032-9.349,17.529-17.572c13.574-6.695,24.376-4.839,26.244-0.728C53.895,25.519,45.431,36.418,31.402,38
	c-5.348,0.599-8.158-1.465-8.867-2.24c-0.743-0.807-0.854-0.855-1.131-0.691c-0.443,0.243-0.153,0.966,0,1.385
	c0.423,1.102,2.151,3.026,5.068,3.978c2.577,0.844,8.85,1.31,16.448-1.625c8.494-3.29,15.137-12.432,13.184-20.092
	c-1.95-7.766-14.852-10.332-27.055-5.99c-7.257,2.579-15.122,6.632-20.776,11.922c-6.726,6.292-7.794,11.755-7.356,14.045
	c1.56,8.125,12.766,13.416,17.25,17.332c-0.223,0.133-0.432,0.248-0.613,0.34C15.31,57.479,6.77,61.942,4.643,66.663
	c-2.418,5.353,0.389,9.191,2.24,9.708c5.751,1.596,11.672-1.279,14.852-6.019c3.18-4.74,2.787-10.895,1.318-13.715
	c-0.018-0.038-0.029-0.067-0.061-0.104c0.582-0.334,1.177-0.686,1.758-1.038c1.148-0.665,2.275-1.299,3.241-1.812
	c-0.544,1.5-0.948,3.285-1.151,5.865c-0.24,3.031,1.003,6.967,2.636,8.509c0.724,0.681,1.576,0.695,2.123,0.695
	c1.91,0,2.761-1.579,3.711-3.442c1.159-2.293,2.209-4.957,2.209-4.957s-1.307,7.197,2.243,7.197c1.289,0,2.593-1.689,3.169-2.536
	v0.019c0,0,0.037-0.044,0.098-0.165c0.133-0.2,0.211-0.329,0.211-0.329v-0.031c0.517-0.906,1.68-2.953,3.402-6.357
	c2.221-4.385,4.368-9.867,4.368-9.867s0.194,1.338,0.854,3.562c0.391,1.307,1.196,2.746,1.842,4.129
	c-0.517,0.729-0.844,1.134-0.844,1.134s0,0,0.021,0.02c-0.418,0.541-0.871,1.14-1.37,1.723c-1.758,2.094-3.855,4.494-4.141,5.188
	c-0.345,0.824-0.261,1.42,0.388,1.906c0.462,0.355,1.3,0.403,2.159,0.355c1.578-0.118,2.695-0.504,3.246-0.748
	c0.85-0.309,1.851-0.771,2.781-1.468c1.725-1.271,2.775-3.093,2.677-5.496c-0.053-1.312-0.48-2.645-1.013-3.883
	c0.16-0.223,0.305-0.446,0.464-0.679c2.723-3.983,4.833-8.351,4.833-8.351s0.196,1.339,0.861,3.565
	c0.319,1.126,0.979,2.354,1.559,3.548c-2.558,2.075-4.143,4.501-4.709,6.074c-1.017,2.933-0.22,4.258,1.277,4.561
	c0.677,0.146,1.648-0.182,2.355-0.479c0.907-0.293,1.964-0.795,2.976-1.534c1.729-1.276,3.392-3.052,3.294-5.454
	c-0.05-1.093-0.339-2.171-0.744-3.221c2.18-0.907,4.991-1.405,8.564-0.987c7.675,0.907,9.189,5.694,8.898,7.711
	c-0.289,2.014-1.897,3.109-2.433,3.447c-0.535,0.335-0.708,0.452-0.662,0.694c0.063,0.35,0.325,0.333,0.778,0.276
	c0.628-0.114,4.027-1.636,4.173-5.344C89.322,53.801,84.808,48.62,76.832,48.671z M17.628,68.631
	c-2.545,2.777-6.092,3.82-7.626,2.933c-1.642-0.947-1-5.042,2.132-7.979c1.906-1.788,4.351-3.449,5.98-4.463
	c0.373-0.227,0.924-0.55,1.583-0.955c0.113-0.061,0.172-0.087,0.172-0.087c0.13-0.089,0.26-0.164,0.395-0.242
	C21.397,62.022,20.307,65.712,17.628,68.631z M36.17,56.022c-0.893,2.155-2.744,7.688-3.871,7.381
	c-0.966-0.252-1.567-4.446-0.191-8.592c0.688-2.075,2.157-4.555,3.013-5.527c1.388-1.548,2.919-2.063,3.289-1.434
	C38.873,48.671,36.716,54.671,36.17,56.022z M54.917,58.536c0,2.469-2.388,4.135-3.449,4.805c-0.372,0.196-0.724,0.323-0.887,0.227
	c-0.115-0.064,0.163-0.325,0.163-0.325s1.919-2.055,2.676-2.992c0.434-0.545,0.955-1.193,1.497-1.923V58.536z M63.268,60.651
	c-0.274-0.189-0.227-0.838,0.697-2.849c0.353-0.794,1.194-2.116,2.634-3.389c0.149,0.516,0.271,1.014,0.248,1.48
	C66.835,59.01,64.608,60.167,63.268,60.651z"/>
</svg>
