<?xml version="1.0" encoding="utf-8"?>
<!-- Generator: Adobe Illustrator 14.0.0, SVG Export Plug-In . SVG Version: 6.00 Build 43363)  -->
<!DOCTYPE svg PUBLIC "-//W3C//DTD SVG 1.1//EN" "http://www.w3.org/Graphics/SVG/1.1/DTD/svg11.dtd">
<svg version="1.1" id="Calque_1" xmlns="http://www.w3.org/2000/svg" xmlns:xlink="http://www.w3.org/1999/xlink" x="0px" y="0px"
	 width="90px" height="90px" viewBox="0 0 90 90" enable-background="new 0 0 90 90" xml:space="preserve">
<path fill="#E9492A" d="M45.287,7.833c-20.635,0-37.361,16.73-37.361,37.359c0,20.636,16.726,37.37,37.361,37.37
	c20.63,0,37.357-16.732,37.357-37.37C82.644,24.563,65.917,7.833,45.287,7.833z M65.431,29.458c-1.735,0.059-2.927-0.97-2.982-2.544
	c-0.018-0.58,0.13-1.081,0.524-1.672c0.389-0.759,0.469-0.842,0.458-1.167c-0.035-0.99-1.533-1.03-1.94-1.005
	c-5.605,0.178-7.086,7.752-8.285,13.908l-0.581,3.246c3.224,0.47,5.517-0.113,6.798-0.94c1.799-1.168-0.502-2.37-0.216-3.699
	c0.294-1.355,1.529-2.012,2.506-2.036c1.374-0.038,2.349,1.386,2.324,2.831c-0.051,2.388-3.22,5.669-9.545,5.529
	c-0.778-0.015-1.487-0.075-2.143-0.152l-1.193,6.6c-1.08,4.988-2.5,11.814-7.578,17.764c-4.368,5.189-8.801,6.004-10.791,6.066
	c-3.708,0.123-6.176-1.856-6.257-4.499c-0.085-2.559,2.175-3.959,3.662-4.002c1.98-0.068,3.354,1.365,3.406,3.02
	c0.052,1.409-0.687,1.842-1.165,2.107c-0.323,0.257-0.808,0.523-0.793,1.099c0.01,0.251,0.276,0.818,1.104,0.788
	c1.568-0.049,2.608-0.827,3.339-1.354c3.618-3.013,5.008-8.26,6.833-17.822l0.376-2.321c0.631-3.106,1.318-6.575,2.364-10.031
	c-2.545-1.916-4.076-4.295-7.51-5.23c-2.345-0.64-3.777-0.091-4.789,1.185c-1.185,1.504-0.793,3.474,0.362,4.617l1.905,2.11
	c2.334,2.702,3.604,4.794,3.13,7.627c-0.764,4.505-6.131,7.958-12.487,6.007c-5.418-1.671-6.434-5.5-5.784-7.617
	c0.572-1.857,2.056-2.217,3.499-1.773c1.556,0.482,2.16,2.363,1.716,3.812c-0.052,0.151-0.13,0.409-0.292,0.758
	c-0.178,0.39-0.512,0.746-0.655,1.213c-0.35,1.126,1.207,1.935,2.291,2.272c2.433,0.742,4.797-0.523,5.39-2.491
	c0.559-1.8-0.579-3.06-1.052-3.541l-2.297-2.46c-1.052-1.167-3.363-4.429-2.233-8.09c0.438-1.408,1.354-2.908,2.679-3.9
	c2.805-2.094,5.856-2.436,8.757-1.603c3.757,1.085,5.56,3.563,7.902,5.485c1.308-3.836,3.125-7.599,5.856-10.78
	c2.469-2.886,5.778-4.981,9.569-5.107c3.801-0.132,6.665,1.591,6.756,4.312C68.409,27.131,67.741,29.379,65.431,29.458z"/>
</svg>
