<?xml version="1.0" encoding="utf-8"?>
<!-- Generator: Adobe Illustrator 14.0.0, SVG Export Plug-In . SVG Version: 6.00 Build 43363)  -->
<!DOCTYPE svg PUBLIC "-//W3C//DTD SVG 1.1//EN" "http://www.w3.org/Graphics/SVG/1.1/DTD/svg11.dtd">
<svg version="1.1" id="Calque_1" xmlns="http://www.w3.org/2000/svg" xmlns:xlink="http://www.w3.org/1999/xlink" x="0px" y="0px"
	 width="90px" height="90px" viewBox="0 0 90 90" enable-background="new 0 0 90 90" xml:space="preserve">
<g>
	<g>
		<g>
			<path fill="#E9492A" d="M44.618,11.309c4.533,0,8.925,0.886,13.063,2.636c1.983,0.84,3.903,1.882,5.699,3.093
				c1.778,1.201,3.446,2.58,4.964,4.099c1.525,1.52,2.898,3.191,4.099,4.969c1.214,1.794,2.256,3.711,3.094,5.7
				c1.752,4.134,2.638,8.532,2.638,13.064c0,4.528-0.886,8.922-2.638,13.06c-0.838,1.987-1.88,3.907-3.094,5.699
				c-1.2,1.775-2.573,3.448-4.099,4.969c-1.518,1.519-3.183,2.896-4.964,4.099c-1.796,1.209-3.716,2.252-5.699,3.096
				c-4.139,1.748-8.53,2.634-13.063,2.634c-4.529,0-8.927-0.886-13.062-2.634c-1.986-0.848-3.903-1.887-5.697-3.096
				c-1.78-1.203-3.451-2.58-4.968-4.099c-1.52-1.521-2.897-3.188-4.098-4.969c-1.211-1.792-2.255-3.712-3.092-5.699
				c-1.749-4.138-2.638-8.532-2.638-13.06c0-4.532,0.889-8.93,2.638-13.064c0.839-1.989,1.881-3.906,3.092-5.7
				c1.201-1.777,2.578-3.449,4.098-4.969c1.518-1.515,3.186-2.898,4.968-4.099c1.794-1.21,3.711-2.253,5.697-3.093
				C35.691,12.195,40.089,11.309,44.618,11.309 M44.618,9.167C24.9,9.167,8.917,25.151,8.917,44.869
				c0,19.718,15.985,35.702,35.702,35.702c19.718,0,35.701-15.983,35.701-35.702C80.319,25.151,64.336,9.167,44.618,9.167"/>
			<path fill="#E9492A" d="M14.868,44.869c0,11.776,6.846,21.949,16.768,26.773L17.445,32.761
				C15.79,36.458,14.868,40.555,14.868,44.869 M64.7,43.368c0-3.679-1.319-6.224-2.452-8.206c-1.504-2.451-2.926-4.526-2.926-6.979
				c0-2.733,2.075-5.281,4.997-5.281c0.135,0,0.257,0.019,0.386,0.024c-5.295-4.848-12.347-7.811-20.092-7.811
				c-10.391,0-19.538,5.332-24.856,13.412c0.697,0.019,1.356,0.034,1.912,0.034c3.108,0,7.93-0.378,7.93-0.378
				c1.603-0.095,1.789,2.263,0.189,2.452c0,0-1.612,0.187-3.404,0.284L37.22,63.144l6.509-19.527L39.096,30.92
				c-1.603-0.097-3.12-0.284-3.12-0.284c-1.606-0.097-1.417-2.547,0.184-2.452c0,0,4.915,0.378,7.835,0.378
				c3.113,0,7.931-0.378,7.931-0.378c1.605-0.095,1.792,2.263,0.188,2.452c0,0-1.617,0.187-3.404,0.284l10.752,31.979l3.069-9.726
				C63.9,48.925,64.7,45.914,64.7,43.368 M45.137,47.469L36.21,73.407c2.664,0.785,5.487,1.217,8.403,1.217
				c3.471,0,6.792-0.602,9.885-1.688c-0.081-0.128-0.154-0.261-0.213-0.41L45.137,47.469z M70.728,30.598
				c0.128,0.943,0.195,1.962,0.195,3.057c0,3.019-0.56,6.412-2.261,10.654l-9.084,26.271c8.842-5.154,14.79-14.737,14.79-25.715
				C74.372,39.696,73.048,34.833,70.728,30.598"/>
		</g>
	</g>
</g>
</svg>
