<?xml version="1.0" encoding="utf-8"?>
<!-- Generator: Adobe Illustrator 14.0.0, SVG Export Plug-In . SVG Version: 6.00 Build 43363)  -->
<!DOCTYPE svg PUBLIC "-//W3C//DTD SVG 1.1//EN" "http://www.w3.org/Graphics/SVG/1.1/DTD/svg11.dtd">
<svg version="1.1" id="Calque_1" xmlns="http://www.w3.org/2000/svg" xmlns:xlink="http://www.w3.org/1999/xlink" x="0px" y="0px"
	 width="90px" height="90px" viewBox="0 0 90 90" enable-background="new 0 0 90 90" xml:space="preserve">
<path fill="#FFFFFF" d="M1.009,0v86.385h88.6V0H1.009z M4.701,3.692h81.216v79.001H4.701V3.692L4.701,3.692z"/>
<path fill="#FFFFFF" d="M65.354,36.289c-0.554-0.259-1.256-0.369-2.141-0.369c-4.651,0-7.753,3.581-7.753,9.524
	c0,6.794,3.175,9.525,7.309,9.525c0.887,0,1.847-0.11,2.549-0.406V36.289H65.354z M48.816,45.74c0-8.602,5.537-15.32,14.618-15.32
	c0.774,0,1.182,0,1.92,0.074v-9.599c0-0.221,0.185-0.369,0.37-0.369h5.943c0.295,0,0.368,0.111,0.368,0.295v33.742
	c0,0.996,0,2.251,0.185,3.617c0,0.258,0,0.296-0.222,0.407c-3.1,1.476-6.349,2.142-9.45,2.142
	C54.538,60.729,48.816,55.781,48.816,45.74z M36.228,39.76l10.336,20.045c0.185,0.297,0.074,0.591-0.221,0.591h-6.424
	c-0.406,0-0.591-0.111-0.775-0.48c-2.363-4.873-4.762-9.93-7.235-15.172h-0.074c-2.214,4.946-4.651,10.338-7.014,15.21
	c-0.185,0.295-0.37,0.405-0.665,0.405h-6.128c-0.369,0-0.406-0.295-0.222-0.516l10.115-19.456l-9.783-19.344
	c-0.222-0.296,0-0.554,0.258-0.554h6.35c0.369,0,0.554,0.073,0.665,0.406c2.326,4.91,4.688,9.746,6.903,14.693h0.074
	c2.141-4.873,4.504-9.783,6.756-14.619c0.185-0.295,0.295-0.479,0.665-0.479h5.944c0.295,0,0.406,0.221,0.221,0.554L36.228,39.76
	L36.228,39.76z"/>
</svg>
